<svg id="图层_1" data-name="图层 1" xmlns="http://www.w3.org/2000/svg" xmlns:xlink="http://www.w3.org/1999/xlink" viewBox="0 0 52 52"><defs><style>.cls-1{opacity:0;fill:url(#未命名的渐变_17);}.cls-2{fill:#898989;}</style><linearGradient id="未命名的渐变_17" x1="26" x2="26" y2="52" gradientUnits="userSpaceOnUse"><stop offset="0" stop-color="#38c4f2"/><stop offset="1" stop-color="#4867f4"/></linearGradient></defs><title>车有票标签栏ICON第四版-运用版</title><rect class="cls-1" width="52" height="52"/><path class="cls-2" d="M26,29.21a7.3,7.3,0,0,1-2.69-.51,6.6,6.6,0,0,1-4.22-7.43A7,7,0,0,1,26,15.9a7.32,7.32,0,0,1,5,2,6.4,6.4,0,0,1,.88,8.39A7.15,7.15,0,0,1,26,29.21Zm0-11.55a5.32,5.32,0,0,0-3.64,1.43,4.7,4.7,0,0,0-.62,6.15A5.21,5.21,0,0,0,26,27.39a5.29,5.29,0,0,0,2-.37A4.83,4.83,0,0,0,31,21.58a5.1,5.1,0,0,0-5-3.92Z"/><path class="cls-2" d="M26,48a.91.91,0,0,1-.67-.28l-12-12.3a18.66,18.66,0,0,1,0-26,17.69,17.69,0,0,1,25.41,0,18.66,18.66,0,0,1,0,26l-12,12.3A1,1,0,0,1,26,48ZM26,6.11a16,16,0,0,0-11.4,4.82,16.6,16.6,0,0,0,0,23.23L26,45.88,37.39,34.16a16.6,16.6,0,0,0,0-23.23A16,16,0,0,0,26,6.11Z"/></svg>