<svg id="图层_1" data-name="图层 1" xmlns="http://www.w3.org/2000/svg" xmlns:xlink="http://www.w3.org/1999/xlink" viewBox="0 0 52 52"><defs><style>.cls-1{opacity:0;fill:url(#未命名的渐变_17);}.cls-2{fill:url(#未命名的渐变_17-2);}</style><linearGradient id="未命名的渐变_17" x1="26" x2="26" y2="52" gradientUnits="userSpaceOnUse"><stop offset="0" stop-color="#38c4f2"/><stop offset="1" stop-color="#4867f4"/></linearGradient><linearGradient id="未命名的渐变_17-2" y1="4" x2="26" y2="48" xlink:href="#未命名的渐变_17"/></defs><title>车有票标签栏ICON第四版-运用版</title><rect class="cls-1" width="52" height="52"/><path class="cls-2" d="M38.7,9.38a17.68,17.68,0,0,0-25.4,0,18.64,18.64,0,0,0,0,26l12,12.3a1,1,0,0,0,1.36,0l12-12.3A18.64,18.64,0,0,0,38.7,9.38ZM31.87,26.24a7.16,7.16,0,0,1-5.87,3,7.26,7.26,0,0,1-2.69-.51,6.59,6.59,0,0,1-4.22-7.43A7,7,0,0,1,26,15.9a7.28,7.28,0,0,1,5,2A6.39,6.39,0,0,1,31.87,26.24Z"/></svg>