<svg id="图层_1" data-name="图层 1" xmlns="http://www.w3.org/2000/svg" xmlns:xlink="http://www.w3.org/1999/xlink" viewBox="0 0 52 52"><defs><style>.cls-1{opacity:0;fill:url(#未命名的渐变_17);}.cls-2{fill:url(#未命名的渐变_17-2);}</style><linearGradient id="未命名的渐变_17" x1="26" x2="26" y2="52" gradientUnits="userSpaceOnUse"><stop offset="0" stop-color="#38c4f2"/><stop offset="1" stop-color="#4867f4"/></linearGradient><linearGradient id="未命名的渐变_17-2" y1="4" x2="26" y2="48" xlink:href="#未命名的渐变_17"/></defs><title>车有票标签栏ICON第四版-运用版</title><rect class="cls-1" width="52" height="52"/><path class="cls-2" d="M32.15,28.32l-1-.36.91-.56a12.79,12.79,0,0,0,6-10.84A12.33,12.33,0,0,0,26,4,12.33,12.33,0,0,0,14,16.56a12.72,12.72,0,0,0,6,10.84l.9.56-1,.36A19.78,19.78,0,0,0,7,47s.11,1,.78,1H44.21c.7,0,.79-1,.79-1A19.78,19.78,0,0,0,32.15,28.32Zm-1.29,5a6.3,6.3,0,0,1-4.58,2,8.16,8.16,0,0,1-5.09-2,.89.89,0,0,1-.09-1.24.85.85,0,0,1,1.22-.09c.17.15,4,3.4,7.32,0a.86.86,0,0,1,1.22,0A.91.91,0,0,1,30.86,33.34Z"/></svg>