<svg id="图层_1" data-name="图层 1" xmlns="http://www.w3.org/2000/svg" xmlns:xlink="http://www.w3.org/1999/xlink" viewBox="0 0 52 52"><defs><style>.cls-1{opacity:0;fill:url(#未命名的渐变_17);}.cls-2{fill:#898989;}</style><linearGradient id="未命名的渐变_17" x1="26" x2="26" y2="52" gradientUnits="userSpaceOnUse"><stop offset="0" stop-color="#38c4f2"/><stop offset="1" stop-color="#4867f4"/></linearGradient></defs><title>车有票标签栏ICON第四版-运用版</title><rect class="cls-1" width="52" height="52"/><path class="cls-2" d="M7.78,48C7.11,48,7,47,7,47A19.78,19.78,0,0,1,19.85,28.32l1-.36-.9-.56a12.72,12.72,0,0,1-6-10.84A12.33,12.33,0,0,1,26,4,12.33,12.33,0,0,1,38,16.56a12.79,12.79,0,0,1-6,10.84l-.91.56,1,.36A19.78,19.78,0,0,1,45,47.05s-.09,1-.79,1ZM26,29.12C16.92,29.13,9.38,36.54,8.83,46v.28H43.18l0-.28C42.61,36.54,35.08,29.13,26,29.12Zm0-1.88c.35,0,.7,0,1.05,0l.29,0h.07a10.67,10.67,0,0,0,8.82-10.73c0-6-4.59-10.84-10.23-10.84S15.77,10.58,15.77,16.56a10.67,10.67,0,0,0,8.85,10.73H25C25.3,27.26,25.65,27.24,26,27.24Z"/><path class="cls-2" d="M26.28,35.37a8.16,8.16,0,0,1-5.09-2,.89.89,0,0,1-.09-1.24.85.85,0,0,1,1.22-.09c.17.15,4,3.4,7.32,0a.86.86,0,0,1,1.22,0,.91.91,0,0,1,0,1.25A6.3,6.3,0,0,1,26.28,35.37Z"/></svg>