<svg id="图层_1" data-name="图层 1" xmlns="http://www.w3.org/2000/svg" viewBox="0 0 52 52"><defs><style>.cls-1,.cls-2{fill:#898989;}.cls-2{opacity:0;}</style></defs><title>看电影</title><path class="cls-1" d="M29.56,11.54A5,5,0,0,0,21,15.1a4.92,4.92,0,0,0,5,5,5.36,5.36,0,0,0,3.56-1.44A4.91,4.91,0,0,0,31,15.1,4.92,4.92,0,0,0,29.56,11.54Zm-1.41,5.71a3.22,3.22,0,0,1-2.15.87,3,3,0,0,1-3-3,3,3,0,0,1,.88-2.16,3.09,3.09,0,0,1,4.3,0,3.08,3.08,0,0,1,0,4.31Z"/><path class="cls-1" d="M29.56,33.66A5,5,0,1,0,26,42.22a5.36,5.36,0,0,0,3.56-1.44,5.12,5.12,0,0,0,0-7.12Zm-1.41,5.71a3.19,3.19,0,0,1-2.15.88,3,3,0,1,1,2.15-.88Z"/><path class="cls-1" d="M40.52,22.49A5,5,0,1,0,37,31.05a5.36,5.36,0,0,0,3.56-1.44,5.12,5.12,0,0,0,0-7.12Zm-1.41,5.72a3.22,3.22,0,0,1-2.15.87,3,3,0,0,1-2.15-.87,3,3,0,0,1-.88-2.16,3,3,0,0,1,3-3,3,3,0,0,1,2.15,5.18Z"/><path class="cls-1" d="M18.4,22.49a4.92,4.92,0,0,0-3.56-1.44,5,5,0,1,0,0,10,5.34,5.34,0,0,0,3.56-1.44,5.12,5.12,0,0,0,0-7.12ZM17,28.21a3.27,3.27,0,0,1-2.16.87A3,3,0,1,1,17,28.21Z"/><path class="cls-1" d="M25.8,48A22,22,0,0,1,26,4a21.85,21.85,0,0,1,15.5,6.4,22,22,0,0,1-5.26,35.05l-1,.6H45a1.12,1.12,0,0,1,1.18,1A1.1,1.1,0,0,1,45,48H25.8ZM26,6.1A19.9,19.9,0,1,0,45.9,26,20,20,0,0,0,26,6.1Z"/><rect class="cls-2" width="52" height="52"/></svg>