<svg id="图层_1" data-name="图层 1" xmlns="http://www.w3.org/2000/svg" xmlns:xlink="http://www.w3.org/1999/xlink" viewBox="0 0 52 52"><defs><style>.cls-1{opacity:0;fill:url(#未命名的渐变_17);}.cls-2{fill:url(#未命名的渐变_17-2);}</style><linearGradient id="未命名的渐变_17" x1="26" x2="26" y2="52" gradientUnits="userSpaceOnUse"><stop offset="0" stop-color="#38c4f2"/><stop offset="1" stop-color="#4867f4"/></linearGradient><linearGradient id="未命名的渐变_17-2" y1="4" x2="26" y2="48" xlink:href="#未命名的渐变_17"/></defs><title>车有票标签栏ICON第四版-运用版</title><rect class="cls-1" width="52" height="52"/><path class="cls-2" d="M45,46.05H35.2l1-.6A22,22,0,0,0,34.5,5.7,22,22,0,0,0,4,26a21.94,21.94,0,0,0,6.5,15.6A21.85,21.85,0,0,0,25.8,48H45a1.1,1.1,0,0,0,1.18-1A1.12,1.12,0,0,0,45,46.05ZM18.46,29.39A4.8,4.8,0,0,1,14.84,31a5,5,0,1,1,0-9.92,4.89,4.89,0,0,1,5,4.68A4.82,4.82,0,0,1,18.46,29.39Zm11.07,11.4A5.32,5.32,0,0,1,26,42.22a4.88,4.88,0,1,1,3.53-1.43Zm0-22.17A5,5,0,0,1,21,15.09a5,5,0,1,1,8.49,3.53ZM32,26.05a4.87,4.87,0,0,1,5-5,5,5,0,0,1,3.44,1.34,4.92,4.92,0,0,1,1.52,3.34,4.62,4.62,0,0,1-1.33,3.61A4.82,4.82,0,0,1,37,31a4.87,4.87,0,0,1-5-5Z"/></svg>