<svg id="图层_1" data-name="图层 1" xmlns="http://www.w3.org/2000/svg" xmlns:xlink="http://www.w3.org/1999/xlink" viewBox="0 0 52 52"><defs><style>.cls-1{fill:url(#未命名的渐变_17);}.cls-2{opacity:0;fill:url(#未命名的渐变_17-2);}</style><linearGradient id="未命名的渐变_17" x1="26" y1="9" x2="26" y2="43" gradientUnits="userSpaceOnUse"><stop offset="0" stop-color="#38c4f2"/><stop offset="1" stop-color="#4867f4"/></linearGradient><linearGradient id="未命名的渐变_17-2" y1="0" x2="26" y2="52" xlink:href="#未命名的渐变_17"/></defs><title>车有票标签栏ICON第四版-运用版</title><path class="cls-1" d="M46,9H6a2,2,0,0,0-2,2V41a2,2,0,0,0,2,2H46a2,2,0,0,0,2-2V11A2,2,0,0,0,46,9Zm-4.39,7.54L31.29,24.73,41.4,35.81a.75.75,0,0,1,0,1,.74.74,0,0,1-1.07,0l-10.43-11-3.33,2.67a1.05,1.05,0,0,1-.64.22,1,1,0,0,1-.62-.22l-3.45-2.67-10.18,11a.76.76,0,0,1-1.07.06.79.79,0,0,1-.3-.58.77.77,0,0,1,.21-.58l10.06-11-10.16-8a.93.93,0,0,1-.19-1.23.92.92,0,0,1,.76-.43.87.87,0,0,1,.54.19L25.92,26.48,40.5,15.1a.92.92,0,0,1,.55-.19.87.87,0,0,1,.75.41A.93.93,0,0,1,41.61,16.54Z"/><rect class="cls-2" width="52" height="52"/></svg>