<svg id="图层_1" data-name="图层 1" xmlns="http://www.w3.org/2000/svg" xmlns:xlink="http://www.w3.org/1999/xlink" viewBox="0 0 52 52"><defs><style>.cls-1{opacity:0;fill:url(#未命名的渐变_17);}.cls-2{fill:url(#未命名的渐变_17-2);}.cls-3{fill:url(#未命名的渐变_66);}</style><linearGradient id="未命名的渐变_17" x1="26" x2="26" y2="52" gradientUnits="userSpaceOnUse"><stop offset="0" stop-color="#38c4f2"/><stop offset="1" stop-color="#4867f4"/></linearGradient><linearGradient id="未命名的渐变_17-2" y1="9.21" x2="26" y2="48" xlink:href="#未命名的渐变_17"/><linearGradient id="未命名的渐变_66" x1="26" y1="4" x2="26" y2="15.7" gradientUnits="userSpaceOnUse"><stop offset="0" stop-color="#38c4f2"/><stop offset="0.31" stop-color="#38c1f2"/><stop offset="0.5" stop-color="#3ab9f2"/><stop offset="0.66" stop-color="#3cabf3"/><stop offset="0.79" stop-color="#4097f3"/><stop offset="0.92" stop-color="#447df4"/><stop offset="1" stop-color="#4867f4"/></linearGradient></defs><title>车有票标签栏ICON第四版-运用版</title><rect class="cls-1" width="52" height="52"/><path class="cls-2" d="M40.78,9.21H37.62a.93.93,0,0,0-.87.6.87.87,0,0,0-.1.39v2.35a1.84,1.84,0,0,1-1.88,1.8H17.23a1.84,1.84,0,0,1-1.88-1.8V10.2a.87.87,0,0,0-.1-.39.93.93,0,0,0-.87-.6H11.21A2.17,2.17,0,0,0,9,11.32V45.88A2.18,2.18,0,0,0,11.22,48h18C36.81,48,43,42.06,43,34.76V11.33A2.18,2.18,0,0,0,40.78,9.21ZM26,36.05H16.64a.91.91,0,1,1,0-1.82H26a.91.91,0,1,1,0,1.82Zm9.36-11.89H16.64a.91.91,0,1,1,0-1.81H35.36a.91.91,0,1,1,0,1.81Z"/><path class="cls-3" d="M32.37,6.74H29.82A3.8,3.8,0,0,0,26,4a3.8,3.8,0,0,0-3.82,2.74H19.63A2,2,0,0,0,17.5,8.6v2.65a2,2,0,0,0,2.13,1.86H32.37a2,2,0,0,0,2.13-1.86V8.6A2,2,0,0,0,32.37,6.74Z"/></svg>