<svg id="图层_1" data-name="图层 1" xmlns="http://www.w3.org/2000/svg" xmlns:xlink="http://www.w3.org/1999/xlink" viewBox="0 0 52 52"><defs><style>.cls-1{opacity:0;fill:url(#未命名的渐变_17);}.cls-2{fill:#898989;}</style><linearGradient id="未命名的渐变_17" x1="26" x2="26" y2="52" gradientUnits="userSpaceOnUse"><stop offset="0" stop-color="#38c4f2"/><stop offset="1" stop-color="#4867f4"/></linearGradient></defs><title>车有票标签栏ICON第四版-运用版</title><rect class="cls-1" width="52" height="52"/><path class="cls-2" d="M16.09,24a1,1,0,1,1,0-2H35.91a1,1,0,1,1,0,2Z"/><path class="cls-2" d="M16.09,37a1,1,0,1,1,0-2H26a1,1,0,1,1,0,2Z"/><path class="cls-2" d="M19.78,13.11a2.2,2.2,0,0,1-2.33-2V8.59a2.2,2.2,0,0,1,2.33-2h2.27A4,4,0,0,1,26,4a4,4,0,0,1,3.91,2.58h2.27a2.19,2.19,0,0,1,2.32,2V11.1a2.19,2.19,0,0,1-2.32,2Zm0-4.84a.39.39,0,0,0-.42.32V11.1a.39.39,0,0,0,.42.32H32.13c.22,0,.42-.15.42-.32V8.59c0-.17-.2-.32-.42-.32h-4s0-.66,0-.8A1.62,1.62,0,0,0,28,6.93a2.27,2.27,0,0,0-4.05,0,1.62,1.62,0,0,0-.11.54c0,.14,0,.8,0,.8Z"/><path class="cls-2" d="M11.21,48A2.17,2.17,0,0,1,9,45.88V11.36a2.17,2.17,0,0,1,2.21-2.12h3.17a.89.89,0,1,1,0,1.77H11.22a.36.36,0,0,0-.37.35V45.89a.35.35,0,0,0,.36.34h18a11.72,11.72,0,0,0,12-11.46V11.36a.36.36,0,0,0-.36-.35H37.62a.89.89,0,1,1,0-1.77h3.17A2.17,2.17,0,0,1,43,11.36V34.77C43,42.07,36.81,48,29.2,48Z"/></svg>